<svg viewBox="0 0 20 20" fill="none" xmlns="http://www.w3.org/2000/svg">
    <path
        d="M6.49707 1H17.5029C18.329 1 19 1.67023 19 2.49707V13.5029C19 14.3287 18.3287 15 17.5029 15H6.49707C5.66984 15 5 14.3302 5 13.5029V2.49707C5 1.67095 5.67023 1 6.49707 1Z"
        stroke="gray" stroke-width="2" />
    <path
        d="M2.49707 5H13.5029C14.329 5 15 5.67023 15 6.49707V17.5029C15 18.3287 14.3287 19 13.5029 19H2.49707C1.66984 19 1 18.3302 1 17.5029V6.49707C1 5.67095 1.67023 5 2.49707 5Z"
        stroke="var(--color-primary)" stroke-width="2" />
</svg>